<mxfile host="app.diagrams.net" modified="2023-01-31T06:31:57.716Z" agent="5.0 (X11; Linux x86_64) AppleWebKit/537.36 (KHTML, like Gecko) Chrome/108.0.0.0 Safari/537.36" version="20.8.5" etag="QnQzbIVacD0zUeV3SVI8" type="github">
  <diagram id="DOwbEtqrYKz2QYoDugHg" name="Page-1">
    <mxGraphModel dx="1376" dy="865" grid="1" gridSize="10" guides="1" tooltips="1" connect="1" arrows="1" fold="1" page="1" pageScale="1" pageWidth="827" pageHeight="1169" math="0" shadow="0">
      <root>
        <mxCell id="0" />
        <mxCell id="1" parent="0" />
        <mxCell id="BA478RhJrnXLdiryCZE--10" value="" style="rounded=1;whiteSpace=wrap;html=1;fontFamily=Comic Sans MS;fontSize=18;" vertex="1" parent="1">
          <mxGeometry x="300" y="360" width="310" height="110" as="geometry" />
        </mxCell>
        <mxCell id="BA478RhJrnXLdiryCZE--3" value="" style="edgeStyle=orthogonalEdgeStyle;rounded=0;orthogonalLoop=1;jettySize=auto;html=1;fontFamily=Comic Sans MS;fontSize=18;" edge="1" parent="1" source="BA478RhJrnXLdiryCZE--1" target="BA478RhJrnXLdiryCZE--2">
          <mxGeometry relative="1" as="geometry" />
        </mxCell>
        <mxCell id="BA478RhJrnXLdiryCZE--1" value="&lt;font style=&quot;font-size: 18px;&quot; face=&quot;Comic Sans MS&quot;&gt;ASL code&lt;/font&gt;" style="rounded=0;whiteSpace=wrap;html=1;fillColor=#f5f5f5;fontColor=#333333;strokeColor=#666666;" vertex="1" parent="1">
          <mxGeometry x="360" y="100" width="180" height="60" as="geometry" />
        </mxCell>
        <mxCell id="BA478RhJrnXLdiryCZE--9" value="" style="edgeStyle=orthogonalEdgeStyle;rounded=0;orthogonalLoop=1;jettySize=auto;html=1;fontFamily=Comic Sans MS;fontSize=18;" edge="1" parent="1" source="BA478RhJrnXLdiryCZE--2" target="BA478RhJrnXLdiryCZE--8">
          <mxGeometry relative="1" as="geometry" />
        </mxCell>
        <mxCell id="BA478RhJrnXLdiryCZE--2" value="&lt;font style=&quot;font-size: 18px;&quot; face=&quot;Comic Sans MS&quot;&gt;ASL compiler&lt;/font&gt;" style="rounded=0;whiteSpace=wrap;html=1;fillColor=#f5f5f5;fontColor=#333333;strokeColor=#666666;" vertex="1" parent="1">
          <mxGeometry x="360" y="240" width="180" height="60" as="geometry" />
        </mxCell>
        <mxCell id="BA478RhJrnXLdiryCZE--13" value="" style="edgeStyle=orthogonalEdgeStyle;rounded=0;orthogonalLoop=1;jettySize=auto;html=1;fontFamily=Comic Sans MS;fontSize=18;" edge="1" parent="1" source="BA478RhJrnXLdiryCZE--8" target="BA478RhJrnXLdiryCZE--12">
          <mxGeometry relative="1" as="geometry" />
        </mxCell>
        <mxCell id="BA478RhJrnXLdiryCZE--8" value="&lt;font style=&quot;font-size: 18px;&quot; face=&quot;Comic Sans MS&quot;&gt;AML byte code&lt;/font&gt;" style="rounded=0;whiteSpace=wrap;html=1;" vertex="1" parent="1">
          <mxGeometry x="360" y="400" width="180" height="60" as="geometry" />
        </mxCell>
        <mxCell id="BA478RhJrnXLdiryCZE--11" value="Definition blocks" style="text;html=1;strokeColor=none;fillColor=none;align=center;verticalAlign=middle;whiteSpace=wrap;rounded=0;fontFamily=Comic Sans MS;fontSize=18;" vertex="1" parent="1">
          <mxGeometry x="380" y="360" width="140" height="30" as="geometry" />
        </mxCell>
        <mxCell id="BA478RhJrnXLdiryCZE--12" value="&lt;font style=&quot;font-size: 18px;&quot; face=&quot;Comic Sans MS&quot;&gt;AML interpreter&lt;/font&gt;" style="whiteSpace=wrap;html=1;rounded=0;" vertex="1" parent="1">
          <mxGeometry x="350" y="540" width="200" height="60" as="geometry" />
        </mxCell>
        <mxCell id="BA478RhJrnXLdiryCZE--14" value="" style="endArrow=none;dashed=1;html=1;rounded=0;fontFamily=Comic Sans MS;fontSize=18;" edge="1" parent="1">
          <mxGeometry width="50" height="50" relative="1" as="geometry">
            <mxPoint x="230" y="330" as="sourcePoint" />
            <mxPoint x="700" y="330" as="targetPoint" />
          </mxGeometry>
        </mxCell>
        <mxCell id="BA478RhJrnXLdiryCZE--22" style="edgeStyle=orthogonalEdgeStyle;rounded=0;orthogonalLoop=1;jettySize=auto;html=1;entryX=0;entryY=0.5;entryDx=0;entryDy=0;fontFamily=Comic Sans MS;fontSize=18;dashed=1;" edge="1" parent="1" source="BA478RhJrnXLdiryCZE--19" target="BA478RhJrnXLdiryCZE--1">
          <mxGeometry relative="1" as="geometry" />
        </mxCell>
        <mxCell id="BA478RhJrnXLdiryCZE--19" value="BIOS developer" style="shape=umlActor;verticalLabelPosition=bottom;verticalAlign=top;html=1;outlineConnect=0;fontFamily=Comic Sans MS;fontSize=18;" vertex="1" parent="1">
          <mxGeometry x="240" y="100" width="30" height="60" as="geometry" />
        </mxCell>
        <mxCell id="BA478RhJrnXLdiryCZE--23" value="" style="endArrow=none;dashed=1;html=1;rounded=0;fontFamily=Comic Sans MS;fontSize=18;" edge="1" parent="1">
          <mxGeometry width="50" height="50" relative="1" as="geometry">
            <mxPoint x="235" y="494" as="sourcePoint" />
            <mxPoint x="705" y="494" as="targetPoint" />
          </mxGeometry>
        </mxCell>
        <mxCell id="BA478RhJrnXLdiryCZE--24" value="&lt;i&gt;&lt;b&gt;interface&lt;/b&gt;&lt;/i&gt;" style="text;html=1;strokeColor=none;fillColor=none;align=center;verticalAlign=middle;whiteSpace=wrap;rounded=0;fontFamily=Comic Sans MS;fontSize=18;" vertex="1" parent="1">
          <mxGeometry x="200" y="410" width="60" height="30" as="geometry" />
        </mxCell>
        <mxCell id="BA478RhJrnXLdiryCZE--26" style="edgeStyle=orthogonalEdgeStyle;rounded=0;orthogonalLoop=1;jettySize=auto;html=1;entryX=0;entryY=0.5;entryDx=0;entryDy=0;dashed=1;fontFamily=Comic Sans MS;fontSize=18;" edge="1" parent="1" source="BA478RhJrnXLdiryCZE--25" target="BA478RhJrnXLdiryCZE--12">
          <mxGeometry relative="1" as="geometry" />
        </mxCell>
        <mxCell id="BA478RhJrnXLdiryCZE--25" value="OS" style="text;html=1;strokeColor=none;fillColor=none;align=center;verticalAlign=middle;whiteSpace=wrap;rounded=0;fontFamily=Comic Sans MS;fontSize=18;" vertex="1" parent="1">
          <mxGeometry x="210" y="555" width="60" height="30" as="geometry" />
        </mxCell>
      </root>
    </mxGraphModel>
  </diagram>
</mxfile>
